# xmcd CD database file
#
# Track frame offsets:
#	150
#	30919
#	44209
#	70031
#	80389
#	107010
#	117927
#	136731
#	148552
#	160841
#	186523
#	209587
#	229809
#	240974
#
# Disc length: 3360 seconds
#
# Revision: 2
# Processed by: cddbd v1.4PL0 Copyright (c) Steve Scherf et al.
# Submitted via: CDex 1.50Beta6
#
DISCID=bd0d1e0e
DTITLE=Eric Clapton - A Wonderful Night (live)
DYEAR=1900
DGENRE=Blues
TTITLE0=Smokestack Lightning
TTITLE1=You Can't Judge A Book By Looking At The Cover
TTITLE2=Take It Easy Baby
TTITLE3=Let It Rock
TTITLE4=I Wish I Would
TTITLE5=Boom Boom
TTITLE6=Who Do You Love
TTITLE7=Got Love If You Want It
TTITLE8=Good Morning Little Schoolgirl
TTITLE9=Respectable
TTITLE10=Five Long Years
TTITLE11=I'm A Man
TTITLE12=For Your Love
TTITLE13=Sweet Music
EXTD=
EXTT0=
EXTT1=
EXTT2=
EXTT3=
EXTT4=
EXTT5=
EXTT6=
EXTT7=
EXTT8=
EXTT9=
EXTT10=
EXTT11=
EXTT12=
EXTT13=
PLAYORDER=
